Coordinates
version=1
nRows=26
nColumns=24
inDegrees=yes

Units are S.I. units (second, meters, Newtons, ...)
Angles are in degrees.

endheader
time	pelvis_tilt	pelvis_list	pelvis_rotation	pelvis_tx	pelvis_ty	pelvis_tz	hip_flexion_r	hip_adduction_r	hip_rotation_r	knee_angle_r	ankle_angle_r	subtalar_angle_r	mtp_angle_r	hip_flexion_l	hip_adduction_l	hip_rotation_l	knee_angle_l	ankle_angle_l	subtalar_angle_l	mtp_angle_l	lumbar_extension	lumbar_bending	lumbar_rotation
      2.47000000	    -20.36835688	      4.18696092	    360.63261572	     -0.25371704	      1.37433093	     -1.06076468	     43.09384274	     -4.16604255	      1.94270007	    -24.13690365	     -0.32002458	     -7.20272385	     15.22981558	     17.46147243	      9.11545136	      3.12925152	     -7.05666573	      3.55476292	     -3.17186634	     14.72824574	     26.22963517	      1.65735423	   -213.31326148
      2.47500000	    -20.35896948	      4.19281765	    360.81752541	     -0.24889189	      1.37380002	     -1.06079427	     42.78834447	     -4.32117284	      1.78880825	    -22.11348993	     -1.08215585	     -7.50086528	     15.23131515	     17.10549770	      9.17440976	      3.30781790	     -7.00770913	      3.81360408	     -3.05704369	     14.57364621	     26.23166658	      1.52603506	   -213.40074497
      2.48000000	    -20.37413464	      4.20337178	    361.01574834	     -0.24407442	      1.37320497	     -1.06082216	     42.49135305	     -4.48497101	      1.64204530	    -20.08608912	     -1.81685585	     -7.76625421	     15.22706900	     16.78222531	      9.24060766	      3.50413265	     -6.96949727	      4.04280743	     -2.97752959	     14.43058220	     26.25509425	      1.37953038	   -213.53553996
      2.48500000	    -20.37530487	      4.22131278	    361.21425830	     -0.23927681	      1.37258721	     -1.06084006	     42.16630369	     -4.65543374	      1.48722213	    -18.05810172	     -2.55848781	     -7.99803831	     15.32302146	     16.45371885	      9.31339937	      3.70967789	     -6.95368053	      4.31820969	     -2.88590197	     14.26870992	     26.25659535	      1.22761781	   -213.62876728
      2.49000000	    -20.37255851	      4.23328759	    361.42470040	     -0.23445604	      1.37195126	     -1.06086886	     41.80709717	     -4.82642729	      1.33069202	    -16.01241135	     -3.27782525	     -8.20071459	     15.45319088	     16.12043933	      9.38222417	      3.93504570	     -6.94001718	      4.57241279	     -2.82337620	     14.11774621	     26.25333100	      1.07992095	   -213.75232672
      2.49500000	    -20.38184425	      4.24239274	    361.64837796	     -0.22960418	      1.37127630	     -1.06089665	     41.43461789	     -5.00054237	      1.16852591	    -13.95861961	     -3.99642841	     -8.38178367	     15.65804067	     15.80436669	      9.44974824	      4.17620680	     -6.94133755	      4.83454993	     -2.76188071	     13.96466673	     26.27123500	      0.92610019	   -213.87749666
      2.50000000	    -20.41815802	      4.24922686	    361.91751841	     -0.22478608	      1.37052699	     -1.06095597	     41.07482507	     -5.19854639	      0.98462891	    -11.92964042	     -4.64279096	     -8.47470083	     15.73779936	     15.54023161	      9.52761329	      4.48787036	     -6.98730116	      5.08055177	     -2.74303332	     13.87837853	     26.30445224	      0.74010879	   -214.08510418
      2.50500000	    -20.32170904	      4.25642045	    362.12483475	     -0.21978166	      1.36993255	     -1.06097447	     40.52837632	     -5.35908779	      0.80924761	     -9.85895032	     -5.36724525	     -8.59633520	     16.19637352	     15.07862836	      9.58237783	      4.70872691	     -6.94734493	      5.33779631	     -2.68372386	     13.66826471	     26.21622803	      0.62093242	   -214.17812249
      2.51000000	    -20.28326610	      4.27759782	    362.38591104	     -0.21482940	      1.36919401	     -1.06101717	     40.05282254	     -5.55998063	      0.60843620	     -7.87210022	     -6.00169712	     -8.60763884	     16.52012106	     14.70972056	      9.66658486	      5.01266919	     -6.96816809	      5.60154914	     -2.66828377	     13.51449825	     26.18205174	      0.43975381	   -214.33509507
      2.51500000	    -20.22329010	      4.31325730	    362.64682863	     -0.20986439	      1.36843886	     -1.06103319	     39.56237244	     -5.76736993	      0.39884458	     -5.96738891	     -6.56377531	     -8.51882029	     16.83072363	     14.31661814	      9.76161723	      5.32266461	     -6.99129907	      5.85410835	     -2.66922944	     13.35877821	     26.11485795	      0.24166029	   -214.49771090
      2.52000000	    -20.20068973	      4.36198902	    362.91186567	     -0.20489182	      1.36758800	     -1.06104358	     39.13560758	     -5.98188127	      0.18487016	     -4.18130207	     -7.04064036	     -8.33945670	     17.11446359	     13.97307869	      9.87094911	      5.64517678	     -7.03664795	      6.11325769	     -2.69277156	     13.20611039	     26.09311419	      0.03183405	   -214.66118281
      2.52500000	    -20.16006282	      4.40769495	    363.16857728	     -0.19989925	      1.36673277	     -1.06103570	     38.71046187	     -6.18102169	     -0.04531504	     -2.51647041	     -7.42803867	     -8.05972459	     17.37699701	     13.61185211	      9.97154342	      5.96769427	     -7.08990708	      6.37997174	     -2.72476546	     13.04261366	     26.05054723	     -0.16409163	   -214.80385208
      2.53000000	    -20.13123988	      4.45826815	    363.42155111	     -0.19490477	      1.36584715	     -1.06100256	     38.33222673	     -6.37257569	     -0.28228004	     -1.00349725	     -7.71146604	     -7.69918335	     17.59149693	     13.26933945	     10.07361423	      6.29523624	     -7.15658909	      6.64067208	     -2.77055580	     12.87615410	     26.01692357	     -0.36375352	   -214.95681952
      2.53500000	    -20.10401740	      4.50325204	    363.66981244	     -0.18989740	      1.36495453	     -1.06092711	     37.98902807	     -6.54449699	     -0.52832063	      0.35177092	     -7.89812175	     -7.28340275	     17.73084151	     12.93389521	     10.16359269	      6.61911255	     -7.23412715	      6.89726452	     -2.82788247	     12.73629193	     25.98493538	     -0.56686677	   -215.14032818
      2.54000000	    -20.05401819	      4.53013459	    363.88976209	     -0.18484044	      1.36409611	     -1.06084902	     37.65638425	     -6.67483724	     -0.78927391	      1.54260168	     -7.96630803	     -6.79158737	     17.87878210	     12.56915125	     10.22449161	      6.93369584	     -7.30615374	      7.15065002	     -2.87135239	     12.55728148	     25.93686851	     -0.70371374	   -215.24481185
      2.54500000	    -20.01859619	      4.54225415	    364.09384292	     -0.17976298	      1.36323955	     -1.06072221	     37.38139817	     -6.76996111	     -1.04603326	      2.55484758	     -7.95766787	     -6.28998759	     17.96130511	     12.22832535	     10.26177771	      7.22736598	     -7.39314204	      7.41315941	     -2.90928610	     12.39053561	     25.90925030	     -0.82278131	   -215.36115113
      2.55000000	    -19.96025226	      4.53252450	    364.27615812	     -0.17466716	      1.36242522	     -1.06055713	     37.12373888	     -6.82073363	     -1.30976413	      3.38601562	     -7.87381594	     -5.79278040	     17.99523519	     11.86603930	     10.26524787	      7.50558052	     -7.48268711	      7.67817521	     -2.95103657	     12.23741099	     25.85430454	     -0.90780895	   -215.49712079
      2.55500000	    -19.91237051	      4.49968857	    364.44015923	     -0.16952351	      1.36164160	     -1.06037135	     36.91593120	     -6.83054166	     -1.57167693	      4.03778877	     -7.71598088	     -5.31572004	     17.99151445	     11.51764889	     10.23665927	      7.76933957	     -7.57659832	      7.93638331	     -2.97245413	     12.08367077	     25.82616879	     -0.94649937	   -215.59462590
      2.56000000	    -19.82866697	      4.44310316	    364.57419909	     -0.16433093	      1.36092128	     -1.06014312	     36.70745830	     -6.79015446	     -1.83021380	      4.51521248	     -7.49199017	     -4.88367677	     17.93701348	     11.12697553	     10.16829985	      8.00459715	     -7.66168221	      8.20007965	     -2.97193839	     11.92672836	     25.76431870	     -0.93871263	   -215.67641952
      2.56500000	    -19.75909489	      4.35287816	    364.69873097	     -0.15906104	      1.36024201	     -1.05990997	     36.53992214	     -6.70671888	     -2.09190183	      4.83701572	     -7.27832218	     -4.54877722	     17.85514005	     10.75038769	     10.05862014	      8.22981393	     -7.74348286	      8.43764944	     -2.95116056	     11.79553933	     25.74076553	     -0.88198062	   -215.76205349
      2.57000000	    -19.64230226	      4.26691117	    364.78538201	     -0.15381389	      1.35961759	     -1.05961806	     36.37299373	     -6.59621814	     -2.32102389	      4.97427449	     -6.96410638	     -4.24906195	     17.69586752	     10.32951533	      9.93894425	      8.40899657	     -7.83290088	      8.70754608	     -2.90359058	     11.61954335	     25.64707567	     -0.80444291	   -215.80140214
      2.57500000	    -19.54109337	      4.14429719	    364.86858545	     -0.14849795	      1.35902149	     -1.05933671	     36.24180730	     -6.44652456	     -2.55814807	      4.97788113	     -6.70568781	     -4.08506992	     17.53754768	      9.92987788	      9.77810313	      8.57635032	     -7.92912745	      8.95593865	     -2.85728079	     11.49213298	     25.58752458	     -0.68064073	   -215.88159784
      2.58000000	    -19.44249468	      4.01199241	    364.93437316	     -0.14312535	      1.35844697	     -1.05904387	     36.13643914	     -6.27567615	     -2.77188673	      4.85255017	     -6.46626658	     -4.01190943	     17.35097961	      9.52984337	      9.60031937	      8.73139478	     -8.01936039	      9.19361803	     -2.79112384	     11.37684103	     25.54614208	     -0.52909099	   -215.93275448
      2.58500000	    -19.34263151	      3.86985250	    364.98961754	     -0.13771296	      1.35789815	     -1.05875150	     36.05163042	     -6.08750120	     -2.98084234	      4.60695008	     -6.26503757	     -4.04373983	     17.13709176	      9.13194357	      9.40863016	      8.86201035	     -8.11559973	      9.41816544	     -2.71635946	     11.26966190	     25.51266956	     -0.35094992	   -215.96640034
      2.59000000	    -19.24747295	      3.72355047	    365.03667194	     -0.13229318	      1.35736416	     -1.05846699	     35.99076133	     -5.89387138	     -3.15293419	      4.25890201	     -6.11632628	     -4.16049202	     16.89514340	      8.74745366	      9.21124036	      8.99601382	     -8.22681288	      9.63542297	     -2.63025213	     11.17069176	     25.47918418	     -0.15567594	   -216.00447833
      2.59500000	    -19.22939453	      3.58317742	    365.07841051	     -0.12682553	      1.35674609	     -1.05819917	     36.03185285	     -5.70822833	     -3.31604981	      3.82036388	     -6.04551351	     -4.34183682	     16.80832536	      8.45354020	      9.02793409	      9.13498594	     -8.35195825	      9.80958676	     -2.61421319	     11.17480740	     25.55518007	      0.04397374	   -215.98123697
